<svg xmlns="http://www.w3.org/2000/svg" viewBox="0 0 760 560" role="img"><defs><linearGradient id="g" x1="0" x2="1"><stop stop-color="#e7faf6"/><stop offset="1" stop-color="#eee9ff"/></linearGradient></defs><rect width="760" height="560" rx="42" fill="url(#g)"/><circle cx="560" cy="180" r="120" fill="#fff" opacity=".72"/><circle cx="560" cy="180" r="65" fill="#6f5bd3" opacity=".22"/><g fill="#6f5bd3" opacity=".7"><circle cx="530" cy="155" r="15"/><circle cx="590" cy="210" r="19"/><circle cx="600" cy="130" r="10"/><circle cx="520" cy="220" r="12"/></g><path d="M185 115h125l-25 75h-75z" fill="#fff" stroke="#152735" stroke-width="8"/><path d="M245 190v105m-70 115h205M220 295c-70 25-90 95-40 115h125c70 0 95-45 55-90l-78-83" fill="none" stroke="#152735" stroke-width="18" stroke-linecap="round"/><path d="M285 225 390 100" stroke="#6f5bd3" stroke-width="30" stroke-linecap="round"/><rect x="355" y="70" width="75" height="58" rx="12" fill="#152735" transform="rotate(-48 355 70)"/><path d="M135 455h500" stroke="#6f5bd3" stroke-width="8"/><text x="120" y="505" fill="#152735" font-family="Arial" font-size="22" font-weight="700">PRACTICE ONBOARDING · SAMPLE LOGISTICS</text></svg>